<svg height="600" viewbox="0 0 800 600" preserveAspectRatio="xMidYMid meet" xmlns="http://www.w3.org/2000/svg" width="800"><defs><marker refY="5" markerUnits="userSpaceOnUse" markerWidth="2%" markerHeight="2%" id="circle" viewBox="0 0 10 10 " refX="5"><circle fill="none" stroke="black" cx="5" cy="5" r="3"/></marker><marker markerWidth="2%" markerHeight="2%" id="filled-circle" viewBox="0 0 10 10 " refX="5" refY="5" markerUnits="userSpaceOnUse"><circle stroke="none" cx="5" cy="5" r="3" fill="black"/></marker><marker markerWidth="2%" markerHeight="2%" id="square" viewBox="0 0 10 10 " refX="5" refY="5" markerUnits="userSpaceOnUse"><rect y="2" width="6" height="6" fill="none" stroke="black" x="2"/></marker><marker markerWidth="2%" markerHeight="2%" id="filled-square" viewBox="0 0 10 10 " refX="5" refY="5" markerUnits="userSpaceOnUse"><rect width="6" height="6" fill="black" stroke="none" x="2" y="2"/></marker></defs><g transform="translate(80 520 )scale(1 -1 )" fill="hsl(198, 47%, 65%)" stroke="hsl(198, 47%, 65%)" stroke-width="1px" stroke-linecap="round" stroke-linejoin="round"><rect vector-effect="non-scaling-stroke" x="8.770000e+01" y="0" width="2.750000e+01" height="5.505280e+01"/><rect vector-effect="non-scaling-stroke" x="2.105800e+02" y="0" width="2.750000e+01" height="8.624000e+01"/><rect vector-effect="non-scaling-stroke" x="4.973000e+02" y="0" width="2.750000e+01" height="3.741760e+02"/></g><g stroke-linecap="round" stroke-linejoin="round" transform="translate(80 520 )scale(1 -1 )" fill="hsl(49, 88%, 65%)" stroke="hsl(49, 88%, 65%)" stroke-width="1px"><rect width="2.750000e+01" height="4.618240e+01" vector-effect="non-scaling-stroke" x="1.152000e+02" y="0"/><rect height="1.953600e+02" vector-effect="non-scaling-stroke" x="2.380800e+02" y="0" width="2.750000e+01"/><rect vector-effect="non-scaling-stroke" x="5.248000e+02" y="0" width="2.750000e+01" height="3.541120e+02"/></g><g stroke="hsl(198, 47%, 65%)" font-size="12px" font-weight="normal" font-family="sans-serif" stroke-linejoin="round" font-style="normal" text-anchor="start" dominant-baseline="hanging" stroke-width="1px" stroke-linecap="round" fill="hsl(198, 47%, 65%)"><rect height="12" vector-effect="non-scaling-stroke" x="736" y="484" width="12"/><g stroke="black" fill="black"><text x="752" y="484" dominant-baseline="hanging" stroke="none" vector-effect="non-scaling-stroke">Team A</text></g><g font-size="12px" stroke="hsl(49, 88%, 65%)" stroke-linejoin="round" stroke-width="1px" font-family="sans-serif" text-anchor="start" fill="hsl(49, 88%, 65%)" stroke-linecap="round" font-style="normal" dominant-baseline="hanging" font-weight="normal"><rect x="736" y="502" width="12" height="12" vector-effect="non-scaling-stroke"/><g fill="black" stroke="black"><text vector-effect="non-scaling-stroke" x="752" y="502" dominant-baseline="hanging" stroke="none">Team B</text><g font-style="normal" stroke-width="2px" font-weight="normal" stroke-linejoin="round" dominant-baseline="hanging" font-family="sans-serif" fill="none" text-anchor="start" stroke-linecap="round" font-size="12px"><rect vector-effect="non-scaling-stroke" x="80" y="80" width="640" height="440"/></g><g stroke-linejoin="round" stroke-width="2px" fill="none" stroke="black" text-anchor="start" dominant-baseline="hanging" stroke-linecap="round" font-style="normal" transform="translate(80 520 )scale(1 -1 )" font-family="sans-serif" font-size="12px" font-weight="normal"><path d="M1.152000e+02,0 L1.152000e+02,-6 M2.380800e+02,0 L2.380800e+02,-6 M5.248000e+02,0 L5.248000e+02,-6 " vector-effect="non-scaling-stroke"/></g><g fill="black" font-family="sans-serif" font-size="12px" stroke-width="2px" stroke-linecap="round" stroke-linejoin="round" font-style="normal" transform="translate(80 520 )scale(1 1 )" font-weight="normal" text-anchor="middle" dominant-baseline="hanging" stroke="black"><text x="1.152000e+02" y="10" dominant-baseline="hanging" stroke="none" vector-effect="non-scaling-stroke">10.0</text><text x="2.380800e+02" y="10" dominant-baseline="hanging" stroke="none" vector-effect="non-scaling-stroke">34.0</text><text stroke="none" vector-effect="non-scaling-stroke" x="5.248000e+02" y="10" dominant-baseline="hanging">90.0</text></g><g stroke="black" stroke-linecap="round" stroke-linejoin="round" font-family="sans-serif" font-size="12px" text-anchor="middle" fill="black" font-style="normal" dominant-baseline="baseline" stroke-width="2px" font-weight="bold" transform="translate(80 520 )scale(1 1 )rotate(0 0 0 )"><text x="320" y="-6" dominant-baseline="baseline" stroke="none" vector-effect="non-scaling-stroke">Lemmings</text></g><g fill="black" stroke-linecap="round" stroke-linejoin="round" font-style="normal" transform="translate(720 520 )scale(1 -1 )" stroke="black" stroke-width="2px" font-family="sans-serif" font-size="12px" font-weight="bold" text-anchor="middle" dominant-baseline="baseline"><path vector-effect="non-scaling-stroke" d="M0,5.505280e+01 L6,5.505280e+01 M0,8.624000e+01 L6,8.624000e+01 M0,3.741760e+02 L6,3.741760e+02 "/></g><g font-family="sans-serif" stroke-linecap="round" stroke-linejoin="round" font-style="normal" fill="black" font-size="12px" text-anchor="start" dominant-baseline="middle" stroke="black" font-weight="normal" stroke-width="2px" transform="translate(720 520 )scale(1 1 )"><text stroke="none" vector-effect="non-scaling-stroke" x="10" y="-5.505280e+01" dominant-baseline="middle">3.1</text><text stroke="none" vector-effect="non-scaling-stroke" x="10" y="-8.624000e+01" dominant-baseline="middle">12.0</text><text x="10" y="-3.741760e+02" dominant-baseline="middle" stroke="none" vector-effect="non-scaling-stroke">93.8</text></g><g transform="translate(720 520 )scale(1 -1 )" stroke-width="0.5px" font-family="sans-serif" font-weight="normal" text-anchor="start" stroke="gray" stroke-linejoin="round" font-style="normal" font-size="12px" dominant-baseline="middle" fill="black" stroke-linecap="round"><path vector-effect="non-scaling-stroke" d="M0,5.505280e+01 L-640,5.505280e+01 M0,8.624000e+01 L-640,8.624000e+01 M0,3.741760e+02 L-640,3.741760e+02 "/></g><g transform="translate(80 520 )scale(1 -1 )" font-size="12px" fill="black" stroke-linecap="round" stroke-linejoin="round" font-family="sans-serif" font-weight="normal" text-anchor="start" dominant-baseline="middle" stroke="black" font-style="normal" stroke-width="2px"><path vector-effect="non-scaling-stroke" d="M0,4.618240e+01 L-6,4.618240e+01 M0,1.953600e+02 L-6,1.953600e+02 M0,3.541120e+02 L-6,3.541120e+02 "/></g><g font-style="normal" font-family="sans-serif" text-anchor="end" fill="black" stroke="black" transform="translate(80 520 )scale(1 1 )" stroke-width="2px" font-size="12px" font-weight="normal" dominant-baseline="middle" stroke-linecap="round" stroke-linejoin="round"><text stroke="none" vector-effect="non-scaling-stroke" x="-10" y="-4.618240e+01" dominant-baseline="middle">0.6</text><text dominant-baseline="middle" stroke="none" vector-effect="non-scaling-stroke" x="-10" y="-1.953600e+02">43.0</text><text dominant-baseline="middle" stroke="none" vector-effect="non-scaling-stroke" x="-10" y="-3.541120e+02">88.1</text></g><g font-family="sans-serif" stroke-linejoin="round" transform="translate(80 520 )scale(1 -1 )" fill="black" stroke="gray" font-size="12px" text-anchor="end" dominant-baseline="middle" font-style="normal" font-weight="normal" stroke-width="0.5px" stroke-linecap="round"><path vector-effect="non-scaling-stroke" d="M0,4.618240e+01 L640,4.618240e+01 M0,1.953600e+02 L640,1.953600e+02 M0,3.541120e+02 L640,3.541120e+02 "/></g></g></g></g></svg>