<svg width="800" height="600" viewbox="0 0 800 600" style="background-color:white" preserveAspectRatio="xMidYMid meet" xmlns="http://www.w3.org/2000/svg"><defs><marker markerUnits="userSpaceOnUse" markerWidth="2%" markerHeight="2%" id="circle" viewBox="0 0 10 10 " refX="5" refY="5"><circle cx="5" cy="5" r="3" fill="none" stroke="black"/></marker><marker id="filled-circle" viewBox="0 0 10 10 " refX="5" refY="5" markerUnits="userSpaceOnUse" markerWidth="2%" markerHeight="2%"><circle fill="black" stroke="none" cx="5" cy="5" r="3"/></marker><marker refX="5" refY="5" markerUnits="userSpaceOnUse" markerWidth="2%" markerHeight="2%" id="square" viewBox="0 0 10 10 "><rect x="2" y="2" width="6" height="6" fill="none" stroke="black"/></marker><marker refY="5" markerUnits="userSpaceOnUse" markerWidth="2%" markerHeight="2%" id="filled-square" viewBox="0 0 10 10 " refX="5"><rect height="6" fill="black" stroke="none" x="2" y="2" width="6"/></marker></defs><g stroke-width="1px" stroke-linecap="round" stroke-linejoin="round" transform="translate(80 520 )scale(1 -1 )" fill="hsl(198, 47%, 65%)" stroke="hsl(198, 47%, 65%)"><rect x="8.770000e+01" y="0" width="2.750000e+01" height="5.505280e+01" vector-effect="non-scaling-stroke"/><rect height="8.624000e+01" vector-effect="non-scaling-stroke" x="2.105800e+02" y="0" width="2.750000e+01"/><rect height="3.741760e+02" vector-effect="non-scaling-stroke" x="4.973000e+02" y="0" width="2.750000e+01"/></g><g stroke="hsl(49, 88%, 65%)" stroke-width="1px" stroke-linecap="round" stroke-linejoin="round" transform="translate(80 520 )scale(1 -1 )" fill="hsl(49, 88%, 65%)"><rect x="1.152000e+02" y="0" width="2.750000e+01" height="4.618240e+01" vector-effect="non-scaling-stroke"/><rect y="0" width="2.750000e+01" height="1.953600e+02" vector-effect="non-scaling-stroke" x="2.380800e+02"/><rect vector-effect="non-scaling-stroke" x="5.248000e+02" y="0" width="2.750000e+01" height="3.541120e+02"/></g><g stroke-width="1px" dominant-baseline="hanging" font-weight="normal" stroke="hsl(198, 47%, 65%)" stroke-linejoin="round" font-size="12px" font-family="sans-serif" font-style="normal" text-anchor="start" fill="hsl(198, 47%, 65%)" stroke-linecap="round"><rect width="12" height="12" vector-effect="non-scaling-stroke" x="736" y="484"/><g stroke="black" fill="black"><text y="484" dominant-baseline="hanging" stroke="none" vector-effect="non-scaling-stroke" x="752">Team A</text></g><g font-size="12px" fill="hsl(49, 88%, 65%)" stroke-linecap="round" text-anchor="start" stroke-width="1px" font-style="normal" stroke-linejoin="round" stroke="hsl(49, 88%, 65%)" dominant-baseline="hanging" font-family="sans-serif" font-weight="normal"><rect height="12" vector-effect="non-scaling-stroke" x="736" y="502" width="12"/><g stroke="black" fill="black"><text stroke="none" vector-effect="non-scaling-stroke" x="752" y="502" dominant-baseline="hanging">Team B</text><g text-anchor="start" stroke-width="2px" font-style="normal" dominant-baseline="hanging" font-family="sans-serif" stroke-linecap="round" font-size="12px" font-weight="normal" fill="none" stroke-linejoin="round"><rect x="80" y="80" width="640" height="440" vector-effect="non-scaling-stroke"/></g><g stroke-width="2px" font-family="sans-serif" font-style="normal" text-anchor="start" dominant-baseline="hanging" stroke="black" stroke-linejoin="round" font-size="12px" transform="translate(80 520 )scale(1 -1 )" fill="none" stroke-linecap="round" font-weight="normal"><path d="M1.152000e+02,0 L1.152000e+02,-6 M2.380800e+02,0 L2.380800e+02,-6 M5.248000e+02,0 L5.248000e+02,-6 " vector-effect="non-scaling-stroke"/></g><g text-anchor="middle" fill="black" stroke-linecap="round" font-size="12px" transform="translate(80 520 )scale(1 1 )" stroke-width="2px" font-family="sans-serif" font-style="normal" font-weight="normal" stroke="black" stroke-linejoin="round" dominant-baseline="hanging"><text dominant-baseline="hanging" stroke="none" vector-effect="non-scaling-stroke" x="1.152000e+02" y="10">10.0</text><text y="10" dominant-baseline="hanging" stroke="none" vector-effect="non-scaling-stroke" x="2.380800e+02">34.0</text><text dominant-baseline="hanging" stroke="none" vector-effect="non-scaling-stroke" x="5.248000e+02" y="10">90.0</text></g><g stroke="black" dominant-baseline="baseline" transform="translate(80 520 )scale(1 1 )rotate(0 0 0 )" stroke-width="2px" font-size="12px" font-weight="bold" stroke-linejoin="round" font-family="sans-serif" font-style="normal" text-anchor="middle" fill="black" stroke-linecap="round"><text vector-effect="non-scaling-stroke" x="320" y="-6" dominant-baseline="baseline" stroke="none">Lemmings</text></g><g dominant-baseline="baseline" stroke-width="2px" font-family="sans-serif" font-style="normal" stroke-linejoin="round" font-size="12px" font-weight="bold" text-anchor="middle" fill="black" stroke="black" stroke-linecap="round" transform="translate(720 520 )scale(1 -1 )"><path vector-effect="non-scaling-stroke" d="M0,5.505280e+01 L6,5.505280e+01 M0,8.624000e+01 L6,8.624000e+01 M0,3.741760e+02 L6,3.741760e+02 "/></g><g font-size="12px" transform="translate(720 520 )scale(1 1 )" stroke-width="2px" fill="black" stroke-linecap="round" stroke-linejoin="round" font-style="normal" text-anchor="start" dominant-baseline="middle" font-weight="normal" stroke="black" font-family="sans-serif"><text dominant-baseline="middle" stroke="none" vector-effect="non-scaling-stroke" x="10" y="-5.505280e+01">3.1</text><text stroke="none" vector-effect="non-scaling-stroke" x="10" y="-8.624000e+01" dominant-baseline="middle">12.0</text><text stroke="none" vector-effect="non-scaling-stroke" x="10" y="-3.741760e+02" dominant-baseline="middle">93.8</text></g><g stroke-linejoin="round" transform="translate(720 520 )scale(1 -1 )" font-family="sans-serif" font-style="normal" text-anchor="start" font-size="12px" font-weight="normal" stroke-linecap="round" stroke-width="0.5px" fill="black" stroke="gray" dominant-baseline="middle"><path vector-effect="non-scaling-stroke" d="M0,5.505280e+01 L-640,5.505280e+01 M0,8.624000e+01 L-640,8.624000e+01 M0,3.741760e+02 L-640,3.741760e+02 "/></g><g stroke="black" stroke-linecap="round" transform="translate(80 520 )scale(1 -1 )" font-style="normal" text-anchor="start" font-size="12px" fill="black" dominant-baseline="middle" stroke-width="2px" font-family="sans-serif" font-weight="normal" stroke-linejoin="round"><path vector-effect="non-scaling-stroke" d="M0,4.618240e+01 L-6,4.618240e+01 M0,1.953600e+02 L-6,1.953600e+02 M0,3.541120e+02 L-6,3.541120e+02 "/></g><g stroke-linecap="round" font-weight="normal" transform="translate(80 520 )scale(1 1 )" text-anchor="end" dominant-baseline="middle" stroke-width="2px" stroke-linejoin="round" font-size="12px" fill="black" stroke="black" font-style="normal" font-family="sans-serif"><text vector-effect="non-scaling-stroke" x="-10" y="-4.618240e+01" dominant-baseline="middle" stroke="none">0.6</text><text stroke="none" vector-effect="non-scaling-stroke" x="-10" y="-1.953600e+02" dominant-baseline="middle">43.0</text><text dominant-baseline="middle" stroke="none" vector-effect="non-scaling-stroke" x="-10" y="-3.541120e+02">88.1</text></g><g stroke-linejoin="round" font-size="12px" fill="black" font-family="sans-serif" text-anchor="end" transform="translate(80 520 )scale(1 -1 )" stroke="gray" stroke-linecap="round" font-weight="normal" font-style="normal" dominant-baseline="middle" stroke-width="0.5px"><path vector-effect="non-scaling-stroke" d="M0,4.618240e+01 L640,4.618240e+01 M0,1.953600e+02 L640,1.953600e+02 M0,3.541120e+02 L640,3.541120e+02 "/></g></g></g></g></svg>