<svg width="800" height="600" viewbox="0 0 800 600" preserveAspectRatio="xMidYMid meet" xmlns="http://www.w3.org/2000/svg"><defs><marker id="circle" viewBox="0 0 10 10 " refX="5" refY="5" markerUnits="userSpaceOnUse" markerWidth="2%" markerHeight="2%"><circle stroke="black" cx="5" cy="5" r="3" fill="none"/></marker><marker markerWidth="2%" markerHeight="2%" id="filled-circle" viewBox="0 0 10 10 " refX="5" refY="5" markerUnits="userSpaceOnUse"><circle r="3" fill="black" stroke="none" cx="5" cy="5"/></marker><marker markerUnits="userSpaceOnUse" markerWidth="2%" markerHeight="2%" id="square" viewBox="0 0 10 10 " refX="5" refY="5"><rect width="6" height="6" fill="none" stroke="black" x="2" y="2"/></marker><marker markerHeight="2%" id="filled-square" viewBox="0 0 10 10 " refX="5" refY="5" markerUnits="userSpaceOnUse" markerWidth="2%"><rect fill="black" stroke="none" x="2" y="2" width="6" height="6"/></marker></defs><g marker-mid="url(#square)" transform="translate(70 530 )scale(1 -1 )" stroke-width="3px" marker-start="url(#square)" marker-end="url(#square)" stroke="hsl(90, 47%, 65%)" stroke-linejoin="round" fill="none" stroke-linecap="round"><path vector-effect="non-scaling-stroke" d="M1.320000e+01,9.200000e+00 L8.360000e+01,5.826667e+01 L154,1.073333e+02 L2.244000e+02,1.564000e+02 L2.948000e+02,2.054667e+02 L3.652000e+02,2.545333e+02 L4.356000e+02,3.036000e+02 L5.060000e+02,3.526667e+02 L5.764000e+02,4.017333e+02 L6.468000e+02,4.508000e+02 "/></g><g stroke-linejoin="round" transform="translate(70 530 )scale(1 -1 )" fill="none" stroke-linecap="round" stroke="hsl(301, 88%, 65%)" stroke-width="3px"><path vector-effect="non-scaling-stroke" d="M1.320000e+01,9.200000e+00 C2.493333e+01,9.302057e+00 6.013333e+01,9.495966e+00 8.360000e+01,9.812344e+00 C1.070667e+02,1.012872e+01 1.305333e+02,1.043387e+01 1.540000e+02,1.109827e+01 C1.774667e+02,1.176266e+01 2.009333e+02,1.240348e+01 2.244000e+02,1.379870e+01 C2.478667e+02,1.519393e+01 2.713333e+02,1.653964e+01 2.948000e+02,1.946962e+01 C3.182667e+02,2.239959e+01 3.417333e+02,2.522559e+01 3.652000e+02,3.137854e+01 C3.886667e+02,3.753148e+01 4.121333e+02,4.346609e+01 4.356000e+02,5.638727e+01 C4.590667e+02,6.930845e+01 4.825333e+02,8.177113e+01 5.060000e+02,1.089056e+02 C5.294667e+02,1.360401e+02 5.529333e+02,1.622117e+02 5.764000e+02,2.191941e+02 C5.998667e+02,2.761765e+02 6.350667e+02,4.121990e+02 6.468000e+02,4.508000e+02 "/></g><g stroke-linecap="round" stroke-linejoin="round" marker-mid="url(#filled-circle)" stroke="hsl(152, 76%, 65%)" marker-start="url(#filled-circle)" fill="none" stroke-width="3px" marker-end="url(#filled-circle)" transform="translate(70 530 )scale(1 -1 )"><path vector-effect="non-scaling-stroke" d="M1.320000e+01,3.607114e+02 C2.493333e+01,3.482024e+02 6.013333e+01,2.851094e+02 8.360000e+01,2.856576e+02 C1.070667e+02,2.862057e+02 1.305333e+02,3.648477e+02 1.540000e+02,3.640003e+02 C1.774667e+02,3.631529e+02 2.009333e+02,2.822004e+02 2.244000e+02,2.805729e+02 C2.478667e+02,2.789453e+02 2.713333e+02,3.411548e+02 2.948000e+02,3.542349e+02 C3.182667e+02,3.673149e+02 3.417333e+02,3.830129e+02 3.652000e+02,3.590532e+02 C3.886667e+02,3.350934e+02 4.121333e+02,2.113929e+02 4.356000e+02,2.104762e+02 C4.590667e+02,2.095596e+02 4.825333e+02,3.256239e+02 5.060000e+02,3.535535e+02 C5.294667e+02,3.814831e+02 5.529333e+02,3.876010e+02 5.764000e+02,3.780540e+02 C5.998667e+02,3.685070e+02 6.350667e+02,3.099021e+02 6.468000e+02,2.962717e+02 "/></g><g stroke="black" stroke-width="2px" stroke-linejoin="round" transform="translate(70 530 )scale(1 -1 )" fill="none" stroke-linecap="round"><path d="M1.320000e+01,0 L1.320000e+01,-6 M8.360000e+01,0 L8.360000e+01,-6 M154,0 L154,-6 M2.244000e+02,0 L2.244000e+02,-6 M2.948000e+02,0 L2.948000e+02,-6 M3.652000e+02,0 L3.652000e+02,-6 M4.356000e+02,0 L4.356000e+02,-6 M5.060000e+02,0 L5.060000e+02,-6 M5.764000e+02,0 L5.764000e+02,-6 M6.468000e+02,0 L6.468000e+02,-6 " vector-effect="non-scaling-stroke"/></g><g font-family="sans-serif" fill="black" font-size="12px" font-style="normal" text-anchor="middle" stroke="black" stroke-linejoin="round" transform="translate(70 530 )scale(1 1 )" dominant-baseline="hanging" stroke-linecap="round" font-weight="normal" stroke-width="2px"><text dominant-baseline="hanging" stroke="none" vector-effect="non-scaling-stroke" x="1.320000e+01" y="10">1</text><text stroke="none" vector-effect="non-scaling-stroke" x="8.360000e+01" y="10" dominant-baseline="hanging">2</text><text stroke="none" vector-effect="non-scaling-stroke" x="154" y="10" dominant-baseline="hanging">3</text><text stroke="none" vector-effect="non-scaling-stroke" x="2.244000e+02" y="10" dominant-baseline="hanging">4</text><text x="2.948000e+02" y="10" dominant-baseline="hanging" stroke="none" vector-effect="non-scaling-stroke">5</text><text vector-effect="non-scaling-stroke" x="3.652000e+02" y="10" dominant-baseline="hanging" stroke="none">6</text><text vector-effect="non-scaling-stroke" x="4.356000e+02" y="10" dominant-baseline="hanging" stroke="none">7</text><text vector-effect="non-scaling-stroke" x="5.060000e+02" y="10" dominant-baseline="hanging" stroke="none">8</text><text dominant-baseline="hanging" stroke="none" vector-effect="non-scaling-stroke" x="5.764000e+02" y="10">9</text><text y="10" dominant-baseline="hanging" stroke="none" vector-effect="non-scaling-stroke" x="6.468000e+02">10</text></g><g fill="black" font-size="12px" dominant-baseline="baseline" stroke="black" stroke-width="2px" transform="translate(70 530 )scale(1 1 )rotate(0 0 0 )" font-family="sans-serif" text-anchor="middle" font-style="normal" font-weight="bold" stroke-linejoin="round" stroke-linecap="round"><text vector-effect="non-scaling-stroke" x="330" y="-6" dominant-baseline="baseline" stroke="none">X</text></g><g font-style="normal" stroke-linejoin="round" font-family="sans-serif" fill="black" transform="translate(70 530 )scale(1 -1 )" text-anchor="middle" stroke-linecap="round" font-size="12px" font-weight="bold" dominant-baseline="baseline" stroke="black" stroke-width="2px"><path vector-effect="non-scaling-stroke" d="M0,3.345270e+01 L-6,3.345270e+01 M0,7.929272e+01 L-6,7.929272e+01 M0,1.251327e+02 L-6,1.251327e+02 M0,1.709728e+02 L-6,1.709728e+02 M0,2.168128e+02 L-6,2.168128e+02 M0,2.626528e+02 L-6,2.626528e+02 M0,3.084928e+02 L-6,3.084928e+02 M0,3.543328e+02 L-6,3.543328e+02 M0,4.001729e+02 L-6,4.001729e+02 M0,4.460129e+02 L-6,4.460129e+02 "/></g><g stroke-linecap="round" font-size="12px" font-weight="normal" text-anchor="end" stroke-width="2px" stroke-linejoin="round" font-family="sans-serif" dominant-baseline="middle" fill="black" font-style="normal" stroke="black" transform="translate(70 530 )scale(1 1 )"><text y="-3.345270e+01" dominant-baseline="middle" stroke="none" vector-effect="non-scaling-stroke" x="-10">1.0</text><text y="-7.929272e+01" dominant-baseline="middle" stroke="none" vector-effect="non-scaling-stroke" x="-10">2.0</text><text vector-effect="non-scaling-stroke" x="-10" y="-1.251327e+02" dominant-baseline="middle" stroke="none">4.0</text><text stroke="none" vector-effect="non-scaling-stroke" x="-10" y="-1.709728e+02" dominant-baseline="middle">8.0</text><text stroke="none" vector-effect="non-scaling-stroke" x="-10" y="-2.168128e+02" dominant-baseline="middle">16.0</text><text stroke="none" vector-effect="non-scaling-stroke" x="-10" y="-2.626528e+02" dominant-baseline="middle">32.0</text><text stroke="none" vector-effect="non-scaling-stroke" x="-10" y="-3.084928e+02" dominant-baseline="middle">64.0</text><text dominant-baseline="middle" stroke="none" vector-effect="non-scaling-stroke" x="-10" y="-3.543328e+02">128.0</text><text stroke="none" vector-effect="non-scaling-stroke" x="-10" y="-4.001729e+02" dominant-baseline="middle">256.0</text><text dominant-baseline="middle" stroke="none" vector-effect="non-scaling-stroke" x="-10" y="-4.460129e+02">512.0</text></g><g stroke-linecap="round" font-size="12px" font-style="normal" font-weight="bold" stroke="black" text-anchor="middle" fill="black" dominant-baseline="hanging" stroke-width="2px" stroke-linejoin="round" transform="translate(70 530 )scale(1 1 )rotate(-90 0 0 )" font-family="sans-serif"><text vector-effect="non-scaling-stroke" x="230" y="6" dominant-baseline="hanging" stroke="none">Y</text></g><g text-anchor="middle" transform="translate(70 530 )scale(1 -1 )" font-family="sans-serif" fill="black" stroke-linecap="round" font-size="12px" font-style="normal" font-weight="bold" stroke="gray" stroke-width="0.5px" stroke-linejoin="round" dominant-baseline="hanging"><path vector-effect="non-scaling-stroke" d="M0,3.345270e+01 L660,3.345270e+01 M0,7.929272e+01 L660,7.929272e+01 M0,1.251327e+02 L660,1.251327e+02 M0,1.709728e+02 L660,1.709728e+02 M0,2.168128e+02 L660,2.168128e+02 M0,2.626528e+02 L660,2.626528e+02 M0,3.084928e+02 L660,3.084928e+02 M0,3.543328e+02 L660,3.543328e+02 M0,4.001729e+02 L660,4.001729e+02 M0,4.460129e+02 L660,4.460129e+02 "/></g><g stroke-linecap="round" font-style="normal" text-anchor="middle" fill="none" stroke-width="2px" stroke-linejoin="round" dominant-baseline="hanging" stroke="black" font-size="12px" font-weight="bold" font-family="sans-serif"><rect width="660" height="460" vector-effect="non-scaling-stroke" x="70" y="70"/><g fill="black" font-size="18px" dominant-baseline="middle"><text vector-effect="non-scaling-stroke" x="400" y="35" dominant-baseline="middle" stroke="none">A diagram of sorts 📊 📈</text></g></g></svg>