<svg height="600" viewbox="0 0 800 600" preserveAspectRatio="xMidYMid meet" xmlns="http://www.w3.org/2000/svg" width="800"><defs><marker refY="5" markerUnits="userSpaceOnUse" markerWidth="2%" markerHeight="2%" id="circle" viewBox="0 0 10 10 " refX="5"><circle cy="5" r="3" fill="none" stroke="black" cx="5"/></marker><marker markerUnits="userSpaceOnUse" markerWidth="2%" markerHeight="2%" id="filled-circle" viewBox="0 0 10 10 " refX="5" refY="5"><circle fill="black" stroke="none" cx="5" cy="5" r="3"/></marker><marker viewBox="0 0 10 10 " refX="5" refY="5" markerUnits="userSpaceOnUse" markerWidth="2%" markerHeight="2%" id="square"><rect height="6" fill="none" stroke="black" x="2" y="2" width="6"/></marker><marker viewBox="0 0 10 10 " refX="5" refY="5" markerUnits="userSpaceOnUse" markerWidth="2%" markerHeight="2%" id="filled-square"><rect height="6" fill="black" stroke="none" x="2" y="2" width="6"/></marker></defs><g marker-end="url(#square)" fill="none" stroke-width="3px" stroke-linejoin="round" transform="translate(70 530 )scale(1 -1 )" marker-mid="url(#square)" stroke="hsl(90, 47%, 65%)" stroke-linecap="round" marker-start="url(#square)"><path vector-effect="non-scaling-stroke" d="M1.320000e+01,9.200000e+00 L8.360000e+01,5.826667e+01 L154,1.073333e+02 L2.244000e+02,1.564000e+02 L2.948000e+02,2.054667e+02 L3.652000e+02,2.545333e+02 L4.356000e+02,3.036000e+02 L5.060000e+02,3.526667e+02 L5.764000e+02,4.017333e+02 L6.468000e+02,4.508000e+02 "/></g><g stroke-width="3px" stroke-linejoin="round" transform="translate(70 530 )scale(1 -1 )" stroke-linecap="round" fill="none" stroke="hsl(301, 88%, 65%)"><path vector-effect="non-scaling-stroke" d="M1.320000e+01,9.200000e+00 C2.493333e+01,9.302057e+00 6.013333e+01,9.495966e+00 8.360000e+01,9.812344e+00 C1.070667e+02,1.012872e+01 1.305333e+02,1.043387e+01 1.540000e+02,1.109827e+01 C1.774667e+02,1.176266e+01 2.009333e+02,1.240348e+01 2.244000e+02,1.379870e+01 C2.478667e+02,1.519393e+01 2.713333e+02,1.653964e+01 2.948000e+02,1.946962e+01 C3.182667e+02,2.239959e+01 3.417333e+02,2.522559e+01 3.652000e+02,3.137854e+01 C3.886667e+02,3.753148e+01 4.121333e+02,4.346609e+01 4.356000e+02,5.638727e+01 C4.590667e+02,6.930845e+01 4.825333e+02,8.177113e+01 5.060000e+02,1.089056e+02 C5.294667e+02,1.360401e+02 5.529333e+02,1.622117e+02 5.764000e+02,2.191941e+02 C5.998667e+02,2.761765e+02 6.350667e+02,4.121990e+02 6.468000e+02,4.508000e+02 "/></g><g stroke-width="3px" stroke-linejoin="round" transform="translate(70 530 )scale(1 -1 )" marker-mid="url(#filled-circle)" fill="none" stroke="hsl(152, 76%, 65%)" stroke-linecap="round" marker-start="url(#filled-circle)" marker-end="url(#filled-circle)"><path vector-effect="non-scaling-stroke" d="M1.320000e+01,1.583082e+02 C2.493333e+01,1.958641e+02 6.013333e+01,3.591763e+02 8.360000e+01,3.836441e+02 C1.070667e+02,4.081118e+02 1.305333e+02,3.148037e+02 1.540000e+02,3.051147e+02 C1.774667e+02,2.954256e+02 2.009333e+02,3.281394e+02 2.244000e+02,3.255097e+02 C2.478667e+02,3.228800e+02 2.713333e+02,3.040066e+02 2.948000e+02,2.893365e+02 C3.182667e+02,2.746664e+02 3.417333e+02,2.306648e+02 3.652000e+02,2.374891e+02 C3.886667e+02,2.443135e+02 4.121333e+02,3.090470e+02 4.356000e+02,3.302827e+02 C4.590667e+02,3.515184e+02 4.825333e+02,3.682692e+02 5.060000e+02,3.649035e+02 C5.294667e+02,3.615379e+02 5.529333e+02,3.087259e+02 5.764000e+02,3.100890e+02 C5.998667e+02,3.114521e+02 6.350667e+02,3.625832e+02 6.468000e+02,3.730820e+02 "/></g><g stroke-width="2px" stroke-linecap="round" stroke-linejoin="round" transform="translate(70 530 )scale(1 -1 )" fill="none" stroke="black"><path vector-effect="non-scaling-stroke" d="M1.320000e+01,0 L1.320000e+01,-6 M8.360000e+01,0 L8.360000e+01,-6 M154,0 L154,-6 M2.244000e+02,0 L2.244000e+02,-6 M2.948000e+02,0 L2.948000e+02,-6 M3.652000e+02,0 L3.652000e+02,-6 M4.356000e+02,0 L4.356000e+02,-6 M5.060000e+02,0 L5.060000e+02,-6 M5.764000e+02,0 L5.764000e+02,-6 M6.468000e+02,0 L6.468000e+02,-6 "/></g><g stroke-linejoin="round" font-family="sans-serif" stroke="black" font-style="normal" font-weight="normal" text-anchor="middle" font-size="12px" dominant-baseline="hanging" fill="black" transform="translate(70 530 )scale(1 1 )" stroke-width="2px" stroke-linecap="round"><text vector-effect="non-scaling-stroke" x="1.320000e+01" y="10" dominant-baseline="hanging" stroke="none">1</text><text stroke="none" vector-effect="non-scaling-stroke" x="8.360000e+01" y="10" dominant-baseline="hanging">2</text><text dominant-baseline="hanging" stroke="none" vector-effect="non-scaling-stroke" x="154" y="10">3</text><text dominant-baseline="hanging" stroke="none" vector-effect="non-scaling-stroke" x="2.244000e+02" y="10">4</text><text y="10" dominant-baseline="hanging" stroke="none" vector-effect="non-scaling-stroke" x="2.948000e+02">5</text><text x="3.652000e+02" y="10" dominant-baseline="hanging" stroke="none" vector-effect="non-scaling-stroke">6</text><text stroke="none" vector-effect="non-scaling-stroke" x="4.356000e+02" y="10" dominant-baseline="hanging">7</text><text stroke="none" vector-effect="non-scaling-stroke" x="5.060000e+02" y="10" dominant-baseline="hanging">8</text><text x="5.764000e+02" y="10" dominant-baseline="hanging" stroke="none" vector-effect="non-scaling-stroke">9</text><text vector-effect="non-scaling-stroke" x="6.468000e+02" y="10" dominant-baseline="hanging" stroke="none">10</text></g><g stroke="black" stroke-width="2px" stroke-linecap="round" stroke-linejoin="round" font-weight="bold" font-size="12px" dominant-baseline="baseline" fill="black" font-family="sans-serif" transform="translate(70 530 )scale(1 1 )rotate(0 0 0 )" font-style="normal" text-anchor="middle"><text stroke="none" vector-effect="non-scaling-stroke" x="330" y="-6" dominant-baseline="baseline">X</text></g><g transform="translate(70 530 )scale(1 -1 )" font-style="normal" text-anchor="middle" fill="black" stroke-linecap="round" stroke-width="2px" font-family="sans-serif" stroke-linejoin="round" font-weight="bold" font-size="12px" dominant-baseline="baseline" stroke="black"><path d="M0,3.345270e+01 L-6,3.345270e+01 M0,7.929272e+01 L-6,7.929272e+01 M0,1.251327e+02 L-6,1.251327e+02 M0,1.709728e+02 L-6,1.709728e+02 M0,2.168128e+02 L-6,2.168128e+02 M0,2.626528e+02 L-6,2.626528e+02 M0,3.084928e+02 L-6,3.084928e+02 M0,3.543328e+02 L-6,3.543328e+02 M0,4.001729e+02 L-6,4.001729e+02 M0,4.460129e+02 L-6,4.460129e+02 " vector-effect="non-scaling-stroke"/></g><g stroke-linejoin="round" stroke="black" stroke-linecap="round" font-size="12px" dominant-baseline="middle" fill="black" text-anchor="end" transform="translate(70 530 )scale(1 1 )" font-style="normal" font-weight="normal" font-family="sans-serif" stroke-width="2px"><text stroke="none" vector-effect="non-scaling-stroke" x="-10" y="-3.345270e+01" dominant-baseline="middle">1.0</text><text y="-7.929272e+01" dominant-baseline="middle" stroke="none" vector-effect="non-scaling-stroke" x="-10">2.0</text><text stroke="none" vector-effect="non-scaling-stroke" x="-10" y="-1.251327e+02" dominant-baseline="middle">4.0</text><text x="-10" y="-1.709728e+02" dominant-baseline="middle" stroke="none" vector-effect="non-scaling-stroke">8.0</text><text vector-effect="non-scaling-stroke" x="-10" y="-2.168128e+02" dominant-baseline="middle" stroke="none">16.0</text><text stroke="none" vector-effect="non-scaling-stroke" x="-10" y="-2.626528e+02" dominant-baseline="middle">32.0</text><text dominant-baseline="middle" stroke="none" vector-effect="non-scaling-stroke" x="-10" y="-3.084928e+02">64.0</text><text y="-3.543328e+02" dominant-baseline="middle" stroke="none" vector-effect="non-scaling-stroke" x="-10">128.0</text><text x="-10" y="-4.001729e+02" dominant-baseline="middle" stroke="none" vector-effect="non-scaling-stroke">256.0</text><text stroke="none" vector-effect="non-scaling-stroke" x="-10" y="-4.460129e+02" dominant-baseline="middle">512.0</text></g><g text-anchor="middle" stroke-linejoin="round" transform="translate(70 530 )scale(1 1 )rotate(-90 0 0 )" stroke-width="2px" font-size="12px" dominant-baseline="hanging" fill="black" font-weight="bold" stroke-linecap="round" font-family="sans-serif" stroke="black" font-style="normal"><text stroke="none" vector-effect="non-scaling-stroke" x="230" y="6" dominant-baseline="hanging">Y</text></g><g stroke-width="0.5px" stroke-linecap="round" font-family="sans-serif" text-anchor="middle" dominant-baseline="hanging" stroke="gray" font-weight="bold" fill="black" font-size="12px" stroke-linejoin="round" transform="translate(70 530 )scale(1 -1 )" font-style="normal"><path vector-effect="non-scaling-stroke" d="M0,3.345270e+01 L660,3.345270e+01 M0,7.929272e+01 L660,7.929272e+01 M0,1.251327e+02 L660,1.251327e+02 M0,1.709728e+02 L660,1.709728e+02 M0,2.168128e+02 L660,2.168128e+02 M0,2.626528e+02 L660,2.626528e+02 M0,3.084928e+02 L660,3.084928e+02 M0,3.543328e+02 L660,3.543328e+02 M0,4.001729e+02 L660,4.001729e+02 M0,4.460129e+02 L660,4.460129e+02 "/></g><g stroke="black" stroke-linecap="round" font-family="sans-serif" text-anchor="middle" dominant-baseline="hanging" font-weight="bold" font-size="12px" fill="none" stroke-width="2px" stroke-linejoin="round" font-style="normal"><rect vector-effect="non-scaling-stroke" x="70" y="70" width="660" height="460"/><g fill="black" font-size="18px" dominant-baseline="middle"><text x="400" y="35" dominant-baseline="middle" stroke="none" vector-effect="non-scaling-stroke">A diagram of sorts 📊 📈</text></g></g></svg>