<svg height="600" viewbox="0 0 800 600" preserveAspectRatio="xMidYMid meet" xmlns="http://www.w3.org/2000/svg" width="800"><defs><marker markerUnits="userSpaceOnUse" markerWidth="2%" markerHeight="2%" id="circle" viewBox="0 0 10 10 " refX="5" refY="5"><circle stroke="black" cx="5" cy="5" r="3" fill="none"/></marker><marker markerHeight="2%" id="filled-circle" viewBox="0 0 10 10 " refX="5" refY="5" markerUnits="userSpaceOnUse" markerWidth="2%"><circle r="3" fill="black" stroke="none" cx="5" cy="5"/></marker><marker markerWidth="2%" markerHeight="2%" id="square" viewBox="0 0 10 10 " refX="5" refY="5" markerUnits="userSpaceOnUse"><rect x="2" y="2" width="6" height="6" fill="none" stroke="black"/></marker><marker markerWidth="2%" markerHeight="2%" id="filled-square" viewBox="0 0 10 10 " refX="5" refY="5" markerUnits="userSpaceOnUse"><rect x="2" y="2" width="6" height="6" fill="black" stroke="none"/></marker></defs><g fill="none" stroke="hsl(90, 47%, 65%)" marker-mid="url(#square)" marker-end="url(#square)" stroke-width="3px" stroke-linecap="round" stroke-linejoin="round" transform="translate(70 530 )scale(1 -1 )" marker-start="url(#square)"><path vector-effect="non-scaling-stroke" d="M2.640000e+01,1.840000e+01 L9.386667e+01,6.542222e+01 L1.613333e+02,1.124444e+02 L2.288000e+02,1.594667e+02 L2.962667e+02,2.064889e+02 L3.637333e+02,2.535111e+02 L4.312000e+02,3.005333e+02 L4.986667e+02,3.475556e+02 L5.661333e+02,3.945778e+02 L6.336000e+02,4.416000e+02 "/></g><g stroke-linejoin="round" transform="translate(70 530 )scale(1 -1 )" stroke="hsl(301, 88%, 65%)" fill="none" stroke-width="4" stroke-linecap="round"><path vector-effect="non-scaling-stroke" d="M2.640000e+01,1.840000e+01 C3.764444e+01,1.849780e+01 7.137778e+01,1.868363e+01 9.386667e+01,1.898683e+01 C1.163556e+02,1.929002e+01 1.388444e+02,1.958246e+01 1.613333e+02,2.021917e+01 C1.838222e+02,2.085588e+01 2.063111e+02,2.147000e+01 2.288000e+02,2.280709e+01 C2.512889e+02,2.414418e+01 2.737778e+02,2.543382e+01 2.962667e+02,2.824171e+01 C3.187556e+02,3.104961e+01 3.412444e+02,3.375786e+01 3.637333e+02,3.965443e+01 C3.862222e+02,4.555100e+01 4.087111e+02,5.123834e+01 4.312000e+02,6.362113e+01 C4.536889e+02,7.600393e+01 4.761778e+02,8.794734e+01 4.986667e+02,1.139512e+02 C5.211556e+02,1.399551e+02 5.436444e+02,1.650362e+02 5.661333e+02,2.196444e+02 C5.886222e+02,2.742525e+02 6.223556e+02,4.046074e+02 6.336000e+02,4.416000e+02 "/></g><g stroke-linejoin="round" transform="translate(70 530 )scale(1 -1 )" stroke-linecap="round" stroke="hsl(152, 76%, 65%)" fill="none" stroke-width="4" marker-end="url(#filled-circle)" marker-start="url(#filled-circle)" marker-mid="url(#filled-circle)"><path d="M2.640000e+01,2.925413e+02 C3.764444e+01,2.585691e+02 7.137778e+01,8.742711e+01 9.386667e+01,8.870798e+01 C1.163556e+02,8.998885e+01 1.388444e+02,2.550619e+02 1.613333e+02,3.002265e+02 C1.838222e+02,3.453912e+02 2.063111e+02,3.556373e+02 2.288000e+02,3.596959e+02 C2.512889e+02,3.637545e+02 2.737778e+02,3.319202e+02 2.962667e+02,3.245781e+02 C3.187556e+02,3.172360e+02 3.412444e+02,3.088950e+02 3.637333e+02,3.156431e+02 C3.862222e+02,3.223913e+02 4.087111e+02,3.635853e+02 4.312000e+02,3.650668e+02 C4.536889e+02,3.665484e+02 4.761778e+02,3.248994e+02 4.986667e+02,3.245324e+02 C5.211556e+02,3.241653e+02 5.436444e+02,3.587772e+02 5.661333e+02,3.628645e+02 C5.886222e+02,3.669519e+02 6.223556e+02,3.513576e+02 6.336000e+02,3.490562e+02 " vector-effect="non-scaling-stroke"/></g><g stroke="black" fill="none" stroke-width="2px" stroke-linecap="round" stroke-linejoin="round" transform="translate(70 530 )scale(1 -1 )"><path vector-effect="non-scaling-stroke" d="M2.640000e+01,0 L2.640000e+01,-6 M9.386667e+01,0 L9.386667e+01,-6 M1.613333e+02,0 L1.613333e+02,-6 M2.288000e+02,0 L2.288000e+02,-6 M2.962667e+02,0 L2.962667e+02,-6 M3.637333e+02,0 L3.637333e+02,-6 M4.312000e+02,0 L4.312000e+02,-6 M4.986667e+02,0 L4.986667e+02,-6 M5.661333e+02,0 L5.661333e+02,-6 M6.336000e+02,0 L6.336000e+02,-6 "/></g><g text-anchor="middle" font-family="sans-serif" font-weight="lighter" fill="black" stroke-linejoin="round" stroke-linecap="round" dominant-baseline="hanging" stroke="black" font-size="12px" font-style="normal" transform="translate(70 530 )scale(1 1 )" stroke-width="2px"><text x="2.640000e+01" y="10" dominant-baseline="hanging" stroke="none" vector-effect="non-scaling-stroke">1</text><text vector-effect="non-scaling-stroke" x="9.386667e+01" y="10" dominant-baseline="hanging" stroke="none">2</text><text stroke="none" vector-effect="non-scaling-stroke" x="1.613333e+02" y="10" dominant-baseline="hanging">3</text><text dominant-baseline="hanging" stroke="none" vector-effect="non-scaling-stroke" x="2.288000e+02" y="10">4</text><text stroke="none" vector-effect="non-scaling-stroke" x="2.962667e+02" y="10" dominant-baseline="hanging">5</text><text y="10" dominant-baseline="hanging" stroke="none" vector-effect="non-scaling-stroke" x="3.637333e+02">6</text><text dominant-baseline="hanging" stroke="none" vector-effect="non-scaling-stroke" x="4.312000e+02" y="10">7</text><text dominant-baseline="hanging" stroke="none" vector-effect="non-scaling-stroke" x="4.986667e+02" y="10">8</text><text vector-effect="non-scaling-stroke" x="5.661333e+02" y="10" dominant-baseline="hanging" stroke="none">9</text><text vector-effect="non-scaling-stroke" x="6.336000e+02" y="10" dominant-baseline="hanging" stroke="none">10</text></g><g stroke-width="2px" font-weight="lighter" fill="black" text-anchor="middle" stroke="black" font-style="normal" dominant-baseline="hanging" stroke-linecap="round" stroke-linejoin="round" transform="translate(70 530 )scale(1 -1 )" font-family="sans-serif" font-size="12px"><path d="M0,4.164217e+01 L-6,4.164217e+01 M0,8.557219e+01 L-6,8.557219e+01 M0,1.295022e+02 L-6,1.295022e+02 M0,1.734322e+02 L-6,1.734322e+02 M0,2.173622e+02 L-6,2.173622e+02 M0,2.612923e+02 L-6,2.612923e+02 M0,3.052223e+02 L-6,3.052223e+02 M0,3.491523e+02 L-6,3.491523e+02 M0,3.930823e+02 L-6,3.930823e+02 M0,4.370123e+02 L-6,4.370123e+02 " vector-effect="non-scaling-stroke"/></g><g text-anchor="end" fill="black" transform="translate(70 530 )scale(1 1 )" font-weight="lighter" stroke="black" font-size="12px" font-style="normal" stroke-linecap="round" stroke-linejoin="round" font-family="sans-serif" dominant-baseline="middle" stroke-width="2px"><text stroke="none" vector-effect="non-scaling-stroke" x="-10" y="-4.164217e+01" dominant-baseline="middle">1.0</text><text vector-effect="non-scaling-stroke" x="-10" y="-8.557219e+01" dominant-baseline="middle" stroke="none">2.0</text><text stroke="none" vector-effect="non-scaling-stroke" x="-10" y="-1.295022e+02" dominant-baseline="middle">4.0</text><text stroke="none" vector-effect="non-scaling-stroke" x="-10" y="-1.734322e+02" dominant-baseline="middle">8.0</text><text y="-2.173622e+02" dominant-baseline="middle" stroke="none" vector-effect="non-scaling-stroke" x="-10">16.0</text><text stroke="none" vector-effect="non-scaling-stroke" x="-10" y="-2.612923e+02" dominant-baseline="middle">32.0</text><text stroke="none" vector-effect="non-scaling-stroke" x="-10" y="-3.052223e+02" dominant-baseline="middle">64.0</text><text stroke="none" vector-effect="non-scaling-stroke" x="-10" y="-3.491523e+02" dominant-baseline="middle">128.0</text><text vector-effect="non-scaling-stroke" x="-10" y="-3.930823e+02" dominant-baseline="middle" stroke="none">256.0</text><text dominant-baseline="middle" stroke="none" vector-effect="non-scaling-stroke" x="-10" y="-4.370123e+02">512.0</text></g><g stroke-linejoin="round" transform="translate(70 530 )scale(1 -1 )" font-family="sans-serif" font-style="normal" text-anchor="end" stroke-width="0.5px" stroke-linecap="round" font-size="12px" dominant-baseline="middle" stroke="gray" font-weight="lighter" fill="black"><path vector-effect="non-scaling-stroke" d="M0,4.164217e+01 L660,4.164217e+01 M0,8.557219e+01 L660,8.557219e+01 M0,1.295022e+02 L660,1.295022e+02 M0,1.734322e+02 L660,1.734322e+02 M0,2.173622e+02 L660,2.173622e+02 M0,2.612923e+02 L660,2.612923e+02 M0,3.052223e+02 L660,3.052223e+02 M0,3.491523e+02 L660,3.491523e+02 M0,3.930823e+02 L660,3.930823e+02 M0,4.370123e+02 L660,4.370123e+02 "/></g><g font-family="sans-serif" font-size="12px" font-style="normal" dominant-baseline="middle" fill="none" stroke-width="2px" stroke-linecap="round" stroke-linejoin="round" font-weight="lighter" stroke="black" text-anchor="end"><rect width="660" height="460" vector-effect="non-scaling-stroke" x="70" y="70"/><g fill="black" font-weight="bold" font-size="18px" text-anchor="middle"><text vector-effect="non-scaling-stroke" x="400" y="35" dominant-baseline="middle" stroke="none">A diagram of sorts 📊 📈</text></g></g></svg>