<svg preserveAspectRatio="xMidYMid meet" xmlns="http://www.w3.org/2000/svg" width="800" height="600" viewbox="0 0 800 600"><defs><marker markerHeight="2%" id="circle" viewBox="0 0 10 10 " refX="5" refY="5" markerUnits="userSpaceOnUse" markerWidth="2%"><circle cy="5" r="3" fill="none" stroke="black" cx="5"/></marker><marker markerUnits="userSpaceOnUse" markerWidth="2%" markerHeight="2%" id="filled-circle" viewBox="0 0 10 10 " refX="5" refY="5"><circle cx="5" cy="5" r="3" fill="black" stroke="none"/></marker><marker refX="5" refY="5" markerUnits="userSpaceOnUse" markerWidth="2%" markerHeight="2%" id="square" viewBox="0 0 10 10 "><rect stroke="black" x="2" y="2" width="6" height="6" fill="none"/></marker><marker markerWidth="2%" markerHeight="2%" id="filled-square" viewBox="0 0 10 10 " refX="5" refY="5" markerUnits="userSpaceOnUse"><rect x="2" y="2" width="6" height="6" fill="black" stroke="none"/></marker></defs><g stroke-linecap="round" marker-start="url(#square)" fill="none" transform="translate(70 530 )scale(1 -1 )" stroke-width="1px" stroke-linejoin="round" marker-mid="url(#square)" marker-end="url(#square)" stroke="hsl(90, 47%, 65%)"><path d="M1.320000e+01,9.200000e+00 L8.360000e+01,5.826667e+01 L154,1.073333e+02 L2.244000e+02,1.564000e+02 L2.948000e+02,2.054667e+02 L3.652000e+02,2.545333e+02 L4.356000e+02,3.036000e+02 L5.060000e+02,3.526667e+02 L5.764000e+02,4.017333e+02 L6.468000e+02,4.508000e+02 " vector-effect="non-scaling-stroke"/></g><g fill="none" stroke="hsl(301, 88%, 65%)" transform="translate(70 530 )scale(1 -1 )" stroke-width="3.14px" stroke-linecap="round" stroke-linejoin="round"><path vector-effect="non-scaling-stroke" d="M1.320000e+01,9.200000e+00 C2.493333e+01,9.302057e+00 6.013333e+01,9.495966e+00 8.360000e+01,9.812344e+00 C1.070667e+02,1.012872e+01 1.305333e+02,1.043387e+01 1.540000e+02,1.109827e+01 C1.774667e+02,1.176266e+01 2.009333e+02,1.240348e+01 2.244000e+02,1.379870e+01 C2.478667e+02,1.519393e+01 2.713333e+02,1.653964e+01 2.948000e+02,1.946962e+01 C3.182667e+02,2.239959e+01 3.417333e+02,2.522559e+01 3.652000e+02,3.137854e+01 C3.886667e+02,3.753148e+01 4.121333e+02,4.346609e+01 4.356000e+02,5.638727e+01 C4.590667e+02,6.930845e+01 4.825333e+02,8.177113e+01 5.060000e+02,1.089056e+02 C5.294667e+02,1.360401e+02 5.529333e+02,1.622117e+02 5.764000e+02,2.191941e+02 C5.998667e+02,2.761765e+02 6.350667e+02,4.121990e+02 6.468000e+02,4.508000e+02 "/></g><g fill="none" transform="translate(70 530 )scale(1 -1 )" marker-start="url(#filled-circle)" stroke-linecap="round" stroke-linejoin="round" stroke="hsl(152, 76%, 65%)" marker-mid="url(#filled-circle)" marker-end="url(#filled-circle)" stroke-width="3px"><path vector-effect="non-scaling-stroke" d="M1.320000e+01,3.485288e+02 C2.493333e+01,3.433200e+02 6.013333e+01,3.454086e+02 8.360000e+01,3.172762e+02 C1.070667e+02,2.891438e+02 1.305333e+02,1.689369e+02 1.540000e+02,1.797345e+02 C1.774667e+02,1.905321e+02 2.009333e+02,3.669653e+02 2.244000e+02,3.820617e+02 C2.478667e+02,3.971581e+02 2.713333e+02,3.094453e+02 2.948000e+02,2.703128e+02 C3.182667e+02,2.311804e+02 3.417333e+02,1.782741e+02 3.652000e+02,1.472672e+02 C3.886667e+02,1.162603e+02 4.121333e+02,7.629213e+01 4.356000e+02,8.427130e+01 C4.590667e+02,9.225048e+01 4.825333e+02,1.524553e+02 5.060000e+02,1.951422e+02 C5.294667e+02,2.378292e+02 5.529333e+02,3.349143e+02 5.764000e+02,3.403929e+02 C5.998667e+02,3.458716e+02 6.350667e+02,2.467439e+02 6.468000e+02,2.280141e+02 "/></g><g stroke-linecap="round" stroke-linejoin="round" fill="none" stroke="black" transform="translate(70 530 )scale(1 -1 )" stroke-width="2px"><path vector-effect="non-scaling-stroke" d="M1.320000e+01,0 L1.320000e+01,-6 M8.360000e+01,0 L8.360000e+01,-6 M154,0 L154,-6 M2.244000e+02,0 L2.244000e+02,-6 M2.948000e+02,0 L2.948000e+02,-6 M3.652000e+02,0 L3.652000e+02,-6 M4.356000e+02,0 L4.356000e+02,-6 M5.060000e+02,0 L5.060000e+02,-6 M5.764000e+02,0 L5.764000e+02,-6 M6.468000e+02,0 L6.468000e+02,-6 "/></g><g font-weight="normal" text-anchor="middle" fill="black" font-family="sans-serif" stroke-width="2px" stroke-linecap="round" font-size="12px" stroke="black" transform="translate(70 530 )scale(1 1 )" font-style="normal" stroke-linejoin="round" dominant-baseline="hanging"><text vector-effect="non-scaling-stroke" x="1.320000e+01" y="10" dominant-baseline="hanging" stroke="none">1</text><text dominant-baseline="hanging" stroke="none" vector-effect="non-scaling-stroke" x="8.360000e+01" y="10">2</text><text vector-effect="non-scaling-stroke" x="154" y="10" dominant-baseline="hanging" stroke="none">3</text><text stroke="none" vector-effect="non-scaling-stroke" x="2.244000e+02" y="10" dominant-baseline="hanging">4</text><text dominant-baseline="hanging" stroke="none" vector-effect="non-scaling-stroke" x="2.948000e+02" y="10">5</text><text dominant-baseline="hanging" stroke="none" vector-effect="non-scaling-stroke" x="3.652000e+02" y="10">6</text><text vector-effect="non-scaling-stroke" x="4.356000e+02" y="10" dominant-baseline="hanging" stroke="none">7</text><text x="5.060000e+02" y="10" dominant-baseline="hanging" stroke="none" vector-effect="non-scaling-stroke">8</text><text stroke="none" vector-effect="non-scaling-stroke" x="5.764000e+02" y="10" dominant-baseline="hanging">9</text><text dominant-baseline="hanging" stroke="none" vector-effect="non-scaling-stroke" x="6.468000e+02" y="10">10</text></g><g stroke-width="2px" font-size="12px" font-style="normal" font-weight="bold" text-anchor="middle" fill="black" dominant-baseline="baseline" stroke-linecap="round" stroke-linejoin="round" stroke="black" transform="translate(70 530 )scale(1 1 )rotate(0 0 0 )" font-family="sans-serif"><text x="330" y="-6" dominant-baseline="baseline" stroke="none" vector-effect="non-scaling-stroke">X</text></g><g font-family="sans-serif" fill="black" stroke-linejoin="round" font-size="12px" dominant-baseline="baseline" stroke-width="2px" stroke="black" transform="translate(70 530 )scale(1 -1 )" font-style="normal" font-weight="bold" text-anchor="middle" stroke-linecap="round"><path d="M0,3.345270e+01 L-6,3.345270e+01 M0,7.929272e+01 L-6,7.929272e+01 M0,1.251327e+02 L-6,1.251327e+02 M0,1.709728e+02 L-6,1.709728e+02 M0,2.168128e+02 L-6,2.168128e+02 M0,2.626528e+02 L-6,2.626528e+02 M0,3.084928e+02 L-6,3.084928e+02 M0,3.543328e+02 L-6,3.543328e+02 M0,4.001729e+02 L-6,4.001729e+02 M0,4.460129e+02 L-6,4.460129e+02 " vector-effect="non-scaling-stroke"/></g><g stroke="black" font-weight="normal" stroke-linejoin="round" stroke-width="2px" transform="translate(70 530 )scale(1 1 )" font-family="sans-serif" font-style="normal" text-anchor="end" fill="black" stroke-linecap="round" font-size="12px" dominant-baseline="middle"><text x="-10" y="-3.345270e+01" dominant-baseline="middle" stroke="none" vector-effect="non-scaling-stroke">1.0</text><text y="-7.929272e+01" dominant-baseline="middle" stroke="none" vector-effect="non-scaling-stroke" x="-10">2.0</text><text stroke="none" vector-effect="non-scaling-stroke" x="-10" y="-1.251327e+02" dominant-baseline="middle">4.0</text><text stroke="none" vector-effect="non-scaling-stroke" x="-10" y="-1.709728e+02" dominant-baseline="middle">8.0</text><text y="-2.168128e+02" dominant-baseline="middle" stroke="none" vector-effect="non-scaling-stroke" x="-10">16.0</text><text x="-10" y="-2.626528e+02" dominant-baseline="middle" stroke="none" vector-effect="non-scaling-stroke">32.0</text><text stroke="none" vector-effect="non-scaling-stroke" x="-10" y="-3.084928e+02" dominant-baseline="middle">64.0</text><text dominant-baseline="middle" stroke="none" vector-effect="non-scaling-stroke" x="-10" y="-3.543328e+02">128.0</text><text y="-4.001729e+02" dominant-baseline="middle" stroke="none" vector-effect="non-scaling-stroke" x="-10">256.0</text><text stroke="none" vector-effect="non-scaling-stroke" x="-10" y="-4.460129e+02" dominant-baseline="middle">512.0</text></g><g font-weight="bold" stroke="black" transform="translate(70 530 )scale(1 1 )rotate(-90 0 0 )" font-family="sans-serif" stroke-width="2px" stroke-linejoin="round" font-size="12px" font-style="normal" fill="black" dominant-baseline="hanging" stroke-linecap="round" text-anchor="middle"><text y="6" dominant-baseline="hanging" stroke="none" vector-effect="non-scaling-stroke" x="230">Y</text></g><g font-family="sans-serif" dominant-baseline="hanging" stroke-linecap="round" stroke-linejoin="round" font-style="normal" font-weight="bold" text-anchor="middle" fill="black" stroke="gray" transform="translate(70 530 )scale(1 -1 )" stroke-width="0.5px" font-size="12px"><path vector-effect="non-scaling-stroke" d="M0,3.345270e+01 L660,3.345270e+01 M0,7.929272e+01 L660,7.929272e+01 M0,1.251327e+02 L660,1.251327e+02 M0,1.709728e+02 L660,1.709728e+02 M0,2.168128e+02 L660,2.168128e+02 M0,2.626528e+02 L660,2.626528e+02 M0,3.084928e+02 L660,3.084928e+02 M0,3.543328e+02 L660,3.543328e+02 M0,4.001729e+02 L660,4.001729e+02 M0,4.460129e+02 L660,4.460129e+02 "/></g><g text-anchor="middle" fill="none" font-family="sans-serif" stroke-linecap="round" font-size="12px" dominant-baseline="hanging" stroke="black" font-style="normal" font-weight="bold" stroke-width="2px" stroke-linejoin="round"><rect height="460" vector-effect="non-scaling-stroke" x="70" y="70" width="660"/><g fill="black" font-size="18px" dominant-baseline="middle"><text stroke="none" vector-effect="non-scaling-stroke" x="400" y="35" dominant-baseline="middle">A diagram of sorts 📊 📈</text></g></g></svg>