<svg preserveAspectRatio="xMidYMid meet" xmlns="http://www.w3.org/2000/svg" width="800" height="600" viewbox="0 0 800 600" style="background-color:white"><defs><marker viewBox="0 0 10 10 " refX="5" refY="5" markerUnits="userSpaceOnUse" markerWidth="2%" markerHeight="2%" id="circle"><circle stroke="black" cx="5" cy="5" r="3" fill="none"/></marker><marker viewBox="0 0 10 10 " refX="5" refY="5" markerUnits="userSpaceOnUse" markerWidth="2%" markerHeight="2%" id="filled-circle"><circle cx="5" cy="5" r="3" fill="black" stroke="none"/></marker><marker markerUnits="userSpaceOnUse" markerWidth="2%" markerHeight="2%" id="square" viewBox="0 0 10 10 " refX="5" refY="5"><rect width="6" height="6" fill="none" stroke="black" x="2" y="2"/></marker><marker viewBox="0 0 10 10 " refX="5" refY="5" markerUnits="userSpaceOnUse" markerWidth="2%" markerHeight="2%" id="filled-square"><rect stroke="none" x="2" y="2" width="6" height="6" fill="black"/></marker></defs><g stroke-width="1px" marker-end="url(#square)" fill="none" stroke="hsl(90, 47%, 65%)" stroke-linecap="round" stroke-linejoin="round" marker-start="url(#square)" transform="translate(70 530 )scale(1 -1 )" marker-mid="url(#square)"><path vector-effect="non-scaling-stroke" d="M1.320000e+01,9.200000e+00 L8.360000e+01,5.826667e+01 L154,1.073333e+02 L2.244000e+02,1.564000e+02 L2.948000e+02,2.054667e+02 L3.652000e+02,2.545333e+02 L4.356000e+02,3.036000e+02 L5.060000e+02,3.526667e+02 L5.764000e+02,4.017333e+02 L6.468000e+02,4.508000e+02 "/></g><g fill="none" stroke-linecap="round" stroke-linejoin="round" transform="translate(70 530 )scale(1 -1 )" stroke="hsl(301, 88%, 65%)" stroke-width="3.14px"><path vector-effect="non-scaling-stroke" d="M1.320000e+01,9.200000e+00 C2.493333e+01,9.302057e+00 6.013333e+01,9.495966e+00 8.360000e+01,9.812344e+00 C1.070667e+02,1.012872e+01 1.305333e+02,1.043387e+01 1.540000e+02,1.109827e+01 C1.774667e+02,1.176266e+01 2.009333e+02,1.240348e+01 2.244000e+02,1.379870e+01 C2.478667e+02,1.519393e+01 2.713333e+02,1.653964e+01 2.948000e+02,1.946962e+01 C3.182667e+02,2.239959e+01 3.417333e+02,2.522559e+01 3.652000e+02,3.137854e+01 C3.886667e+02,3.753148e+01 4.121333e+02,4.346609e+01 4.356000e+02,5.638727e+01 C4.590667e+02,6.930845e+01 4.825333e+02,8.177113e+01 5.060000e+02,1.089056e+02 C5.294667e+02,1.360401e+02 5.529333e+02,1.622117e+02 5.764000e+02,2.191941e+02 C5.998667e+02,2.761765e+02 6.350667e+02,4.121990e+02 6.468000e+02,4.508000e+02 "/></g><g stroke="hsl(152, 76%, 65%)" stroke-width="3px" marker-start="url(#filled-circle)" transform="translate(70 530 )scale(1 -1 )" marker-mid="url(#filled-circle)" marker-end="url(#filled-circle)" fill="none" stroke-linecap="round" stroke-linejoin="round"><path vector-effect="non-scaling-stroke" d="M1.320000e+01,3.256657e+02 C2.493333e+01,3.338016e+02 6.013333e+01,3.757549e+02 8.360000e+01,3.744809e+02 C1.070667e+02,3.732068e+02 1.305333e+02,3.188346e+02 1.540000e+02,3.180213e+02 C1.774667e+02,3.172081e+02 2.009333e+02,3.797784e+02 2.244000e+02,3.696016e+02 C2.478667e+02,3.594248e+02 2.713333e+02,2.564637e+02 2.948000e+02,2.569603e+02 C3.182667e+02,2.574570e+02 3.417333e+02,3.571327e+02 3.652000e+02,3.725814e+02 C3.886667e+02,3.880301e+02 4.121333e+02,3.598654e+02 4.356000e+02,3.496526e+02 C4.590667e+02,3.394398e+02 4.825333e+02,3.183902e+02 5.060000e+02,3.113047e+02 C5.294667e+02,3.042192e+02 5.529333e+02,2.988646e+02 5.764000e+02,3.071394e+02 C5.998667e+02,3.154143e+02 6.350667e+02,3.519849e+02 6.468000e+02,3.609540e+02 "/></g><g stroke-width="2px" fill="none" stroke-linecap="round" stroke-linejoin="round" transform="translate(70 530 )scale(1 -1 )" stroke="black"><path d="M1.320000e+01,0 L1.320000e+01,-6 M8.360000e+01,0 L8.360000e+01,-6 M154,0 L154,-6 M2.244000e+02,0 L2.244000e+02,-6 M2.948000e+02,0 L2.948000e+02,-6 M3.652000e+02,0 L3.652000e+02,-6 M4.356000e+02,0 L4.356000e+02,-6 M5.060000e+02,0 L5.060000e+02,-6 M5.764000e+02,0 L5.764000e+02,-6 M6.468000e+02,0 L6.468000e+02,-6 " vector-effect="non-scaling-stroke"/></g><g transform="translate(70 530 )scale(1 1 )" stroke="black" font-family="sans-serif" stroke-linejoin="round" font-size="12px" dominant-baseline="hanging" stroke-width="2px" font-style="normal" font-weight="normal" fill="black" stroke-linecap="round" text-anchor="middle"><text stroke="none" vector-effect="non-scaling-stroke" x="1.320000e+01" y="10" dominant-baseline="hanging">1</text><text dominant-baseline="hanging" stroke="none" vector-effect="non-scaling-stroke" x="8.360000e+01" y="10">2</text><text stroke="none" vector-effect="non-scaling-stroke" x="154" y="10" dominant-baseline="hanging">3</text><text stroke="none" vector-effect="non-scaling-stroke" x="2.244000e+02" y="10" dominant-baseline="hanging">4</text><text y="10" dominant-baseline="hanging" stroke="none" vector-effect="non-scaling-stroke" x="2.948000e+02">5</text><text vector-effect="non-scaling-stroke" x="3.652000e+02" y="10" dominant-baseline="hanging" stroke="none">6</text><text x="4.356000e+02" y="10" dominant-baseline="hanging" stroke="none" vector-effect="non-scaling-stroke">7</text><text y="10" dominant-baseline="hanging" stroke="none" vector-effect="non-scaling-stroke" x="5.060000e+02">8</text><text dominant-baseline="hanging" stroke="none" vector-effect="non-scaling-stroke" x="5.764000e+02" y="10">9</text><text vector-effect="non-scaling-stroke" x="6.468000e+02" y="10" dominant-baseline="hanging" stroke="none">10</text></g><g stroke-linecap="round" text-anchor="middle" dominant-baseline="baseline" stroke="black" font-family="sans-serif" font-size="12px" fill="black" font-style="normal" stroke-width="2px" transform="translate(70 530 )scale(1 1 )rotate(0 0 0 )" font-weight="bold" stroke-linejoin="round"><text stroke="none" vector-effect="non-scaling-stroke" x="330" y="-6" dominant-baseline="baseline">X</text></g><g stroke-width="2px" font-size="12px" fill="black" stroke-linecap="round" font-family="sans-serif" text-anchor="middle" dominant-baseline="baseline" transform="translate(70 530 )scale(1 -1 )" font-weight="bold" font-style="normal" stroke="black" stroke-linejoin="round"><path vector-effect="non-scaling-stroke" d="M0,3.345270e+01 L-6,3.345270e+01 M0,7.929272e+01 L-6,7.929272e+01 M0,1.251327e+02 L-6,1.251327e+02 M0,1.709728e+02 L-6,1.709728e+02 M0,2.168128e+02 L-6,2.168128e+02 M0,2.626528e+02 L-6,2.626528e+02 M0,3.084928e+02 L-6,3.084928e+02 M0,3.543328e+02 L-6,3.543328e+02 M0,4.001729e+02 L-6,4.001729e+02 M0,4.460129e+02 L-6,4.460129e+02 "/></g><g transform="translate(70 530 )scale(1 1 )" font-size="12px" font-weight="normal" fill="black" font-family="sans-serif" font-style="normal" dominant-baseline="middle" stroke-linejoin="round" stroke-linecap="round" text-anchor="end" stroke="black" stroke-width="2px"><text vector-effect="non-scaling-stroke" x="-10" y="-3.345270e+01" dominant-baseline="middle" stroke="none">1.0</text><text x="-10" y="-7.929272e+01" dominant-baseline="middle" stroke="none" vector-effect="non-scaling-stroke">2.0</text><text x="-10" y="-1.251327e+02" dominant-baseline="middle" stroke="none" vector-effect="non-scaling-stroke">4.0</text><text x="-10" y="-1.709728e+02" dominant-baseline="middle" stroke="none" vector-effect="non-scaling-stroke">8.0</text><text x="-10" y="-2.168128e+02" dominant-baseline="middle" stroke="none" vector-effect="non-scaling-stroke">16.0</text><text stroke="none" vector-effect="non-scaling-stroke" x="-10" y="-2.626528e+02" dominant-baseline="middle">32.0</text><text dominant-baseline="middle" stroke="none" vector-effect="non-scaling-stroke" x="-10" y="-3.084928e+02">64.0</text><text dominant-baseline="middle" stroke="none" vector-effect="non-scaling-stroke" x="-10" y="-3.543328e+02">128.0</text><text x="-10" y="-4.001729e+02" dominant-baseline="middle" stroke="none" vector-effect="non-scaling-stroke">256.0</text><text x="-10" y="-4.460129e+02" dominant-baseline="middle" stroke="none" vector-effect="non-scaling-stroke">512.0</text></g><g dominant-baseline="hanging" font-family="sans-serif" font-style="normal" stroke-linejoin="round" transform="translate(70 530 )scale(1 1 )rotate(-90 0 0 )" font-size="12px" stroke="black" stroke-width="2px" text-anchor="middle" font-weight="bold" fill="black" stroke-linecap="round"><text vector-effect="non-scaling-stroke" x="230" y="6" dominant-baseline="hanging" stroke="none">Y</text></g><g font-style="normal" text-anchor="middle" stroke="gray" font-weight="bold" fill="black" stroke-linecap="round" font-family="sans-serif" dominant-baseline="hanging" stroke-width="0.5px" stroke-linejoin="round" transform="translate(70 530 )scale(1 -1 )" font-size="12px"><path d="M0,3.345270e+01 L660,3.345270e+01 M0,7.929272e+01 L660,7.929272e+01 M0,1.251327e+02 L660,1.251327e+02 M0,1.709728e+02 L660,1.709728e+02 M0,2.168128e+02 L660,2.168128e+02 M0,2.626528e+02 L660,2.626528e+02 M0,3.084928e+02 L660,3.084928e+02 M0,3.543328e+02 L660,3.543328e+02 M0,4.001729e+02 L660,4.001729e+02 M0,4.460129e+02 L660,4.460129e+02 " vector-effect="non-scaling-stroke"/></g><g font-style="normal" font-family="sans-serif" text-anchor="middle" dominant-baseline="hanging" stroke="black" stroke-linecap="round" stroke-linejoin="round" font-size="12px" stroke-width="2px" fill="none" font-weight="bold"><rect vector-effect="non-scaling-stroke" x="70" y="70" width="660" height="460"/><g font-size="18px" fill="black" dominant-baseline="middle"><text x="400" y="35" dominant-baseline="middle" stroke="none" vector-effect="non-scaling-stroke">A diagram of sorts 📊 📈</text></g></g></svg>