<svg xmlns="http://www.w3.org/2000/svg" width="800" height="600" viewbox="0 0 800 600" preserveAspectRatio="xMidYMid meet"><defs><marker markerHeight="2%" id="circle" viewBox="0 0 10 10 " refX="5" refY="5" markerUnits="userSpaceOnUse" markerWidth="2%"><circle r="3" fill="none" stroke="black" cx="5" cy="5"/></marker><marker markerHeight="2%" id="filled-circle" viewBox="0 0 10 10 " refX="5" refY="5" markerUnits="userSpaceOnUse" markerWidth="2%"><circle stroke="none" cx="5" cy="5" r="3" fill="black"/></marker><marker markerWidth="2%" markerHeight="2%" id="square" viewBox="0 0 10 10 " refX="5" refY="5" markerUnits="userSpaceOnUse"><rect x="2" y="2" width="6" height="6" fill="none" stroke="black"/></marker><marker markerWidth="2%" markerHeight="2%" id="filled-square" viewBox="0 0 10 10 " refX="5" refY="5" markerUnits="userSpaceOnUse"><rect fill="black" stroke="none" x="2" y="2" width="6" height="6"/></marker></defs><g marker-mid="url(#square)" fill="none" stroke-linejoin="round" marker-start="url(#square)" stroke-linecap="round" transform="translate(70 530 )scale(1 -1 )" stroke="hsl(90, 47%, 65%)" stroke-width="3px" marker-end="url(#square)"><path vector-effect="non-scaling-stroke" d="M1.320000e+01,9.200000e+00 L8.360000e+01,5.826667e+01 L154,1.073333e+02 L2.244000e+02,1.564000e+02 L2.948000e+02,2.054667e+02 L3.652000e+02,2.545333e+02 L4.356000e+02,3.036000e+02 L5.060000e+02,3.526667e+02 L5.764000e+02,4.017333e+02 L6.468000e+02,4.508000e+02 "/></g><g stroke-width="4" stroke-linejoin="round" fill="none" stroke="hsl(301, 88%, 65%)" stroke-linecap="round" transform="translate(70 530 )scale(1 -1 )"><path vector-effect="non-scaling-stroke" d="M1.320000e+01,9.200000e+00 C2.493333e+01,9.302057e+00 6.013333e+01,9.495966e+00 8.360000e+01,9.812344e+00 C1.070667e+02,1.012872e+01 1.305333e+02,1.043387e+01 1.540000e+02,1.109827e+01 C1.774667e+02,1.176266e+01 2.009333e+02,1.240348e+01 2.244000e+02,1.379870e+01 C2.478667e+02,1.519393e+01 2.713333e+02,1.653964e+01 2.948000e+02,1.946962e+01 C3.182667e+02,2.239959e+01 3.417333e+02,2.522559e+01 3.652000e+02,3.137854e+01 C3.886667e+02,3.753148e+01 4.121333e+02,4.346609e+01 4.356000e+02,5.638727e+01 C4.590667e+02,6.930845e+01 4.825333e+02,8.177113e+01 5.060000e+02,1.089056e+02 C5.294667e+02,1.360401e+02 5.529333e+02,1.622117e+02 5.764000e+02,2.191941e+02 C5.998667e+02,2.761765e+02 6.350667e+02,4.121990e+02 6.468000e+02,4.508000e+02 "/></g><g transform="translate(70 530 )scale(1 -1 )" stroke-linecap="round" stroke-width="4" fill="none" marker-mid="url(#filled-circle)" marker-start="url(#filled-circle)" stroke-linejoin="round" marker-end="url(#filled-circle)" stroke="hsl(152, 76%, 65%)"><path vector-effect="non-scaling-stroke" d="M1.320000e+01,3.583110e+02 C2.493333e+01,3.391139e+02 6.013333e+01,2.399649e+02 8.360000e+01,2.431284e+02 C1.070667e+02,2.462919e+02 1.305333e+02,3.577641e+02 1.540000e+02,3.772923e+02 C1.774667e+02,3.968204e+02 2.009333e+02,3.916208e+02 2.244000e+02,3.602972e+02 C2.478667e+02,3.289737e+02 2.713333e+02,1.888963e+02 2.948000e+02,1.893509e+02 C3.182667e+02,1.898056e+02 3.417333e+02,3.592282e+02 3.652000e+02,3.630253e+02 C3.886667e+02,3.668223e+02 4.121333e+02,2.193306e+02 4.356000e+02,2.121331e+02 C4.590667e+02,2.049355e+02 4.825333e+02,2.960532e+02 5.060000e+02,3.198400e+02 C5.294667e+02,3.436268e+02 5.529333e+02,3.870617e+02 5.764000e+02,3.548540e+02 C5.998667e+02,3.226463e+02 6.350667e+02,1.646373e+02 6.468000e+02,1.265940e+02 "/></g><g transform="translate(70 530 )scale(1 -1 )" fill="none" stroke="black" stroke-width="2px" stroke-linejoin="round" stroke-linecap="round"><path vector-effect="non-scaling-stroke" d="M1.320000e+01,0 L1.320000e+01,-6 M8.360000e+01,0 L8.360000e+01,-6 M154,0 L154,-6 M2.244000e+02,0 L2.244000e+02,-6 M2.948000e+02,0 L2.948000e+02,-6 M3.652000e+02,0 L3.652000e+02,-6 M4.356000e+02,0 L4.356000e+02,-6 M5.060000e+02,0 L5.060000e+02,-6 M5.764000e+02,0 L5.764000e+02,-6 M6.468000e+02,0 L6.468000e+02,-6 "/></g><g text-anchor="middle" fill="black" font-style="normal" font-family="sans-serif" stroke-linejoin="round" transform="translate(70 530 )scale(1 1 )" dominant-baseline="hanging" stroke="black" stroke-width="2px" font-size="12px" font-weight="lighter" stroke-linecap="round"><text stroke="none" vector-effect="non-scaling-stroke" x="1.320000e+01" y="10" dominant-baseline="hanging">1</text><text vector-effect="non-scaling-stroke" x="8.360000e+01" y="10" dominant-baseline="hanging" stroke="none">2</text><text dominant-baseline="hanging" stroke="none" vector-effect="non-scaling-stroke" x="154" y="10">3</text><text stroke="none" vector-effect="non-scaling-stroke" x="2.244000e+02" y="10" dominant-baseline="hanging">4</text><text y="10" dominant-baseline="hanging" stroke="none" vector-effect="non-scaling-stroke" x="2.948000e+02">5</text><text vector-effect="non-scaling-stroke" x="3.652000e+02" y="10" dominant-baseline="hanging" stroke="none">6</text><text stroke="none" vector-effect="non-scaling-stroke" x="4.356000e+02" y="10" dominant-baseline="hanging">7</text><text stroke="none" vector-effect="non-scaling-stroke" x="5.060000e+02" y="10" dominant-baseline="hanging">8</text><text y="10" dominant-baseline="hanging" stroke="none" vector-effect="non-scaling-stroke" x="5.764000e+02">9</text><text dominant-baseline="hanging" stroke="none" vector-effect="non-scaling-stroke" x="6.468000e+02" y="10">10</text></g><g stroke="black" stroke-linejoin="round" font-family="sans-serif" font-weight="bold" fill="black" text-anchor="middle" dominant-baseline="baseline" stroke-linecap="round" transform="translate(70 530 )scale(1 1 )rotate(0 0 0 )" font-size="12px" font-style="normal" stroke-width="2px"><text y="-6" dominant-baseline="baseline" stroke="none" vector-effect="non-scaling-stroke" x="330">X</text></g><g text-anchor="middle" dominant-baseline="baseline" stroke="black" stroke-width="2px" stroke-linecap="round" transform="translate(70 530 )scale(1 -1 )" font-family="sans-serif" stroke-linejoin="round" font-size="12px" font-style="normal" font-weight="bold" fill="black"><path vector-effect="non-scaling-stroke" d="M0,3.345270e+01 L-6,3.345270e+01 M0,7.929272e+01 L-6,7.929272e+01 M0,1.251327e+02 L-6,1.251327e+02 M0,1.709728e+02 L-6,1.709728e+02 M0,2.168128e+02 L-6,2.168128e+02 M0,2.626528e+02 L-6,2.626528e+02 M0,3.084928e+02 L-6,3.084928e+02 M0,3.543328e+02 L-6,3.543328e+02 M0,4.001729e+02 L-6,4.001729e+02 M0,4.460129e+02 L-6,4.460129e+02 "/></g><g stroke="black" font-family="sans-serif" font-weight="lighter" stroke-linejoin="round" text-anchor="end" dominant-baseline="middle" font-style="normal" stroke-linecap="round" transform="translate(70 530 )scale(1 1 )" stroke-width="2px" fill="black" font-size="12px"><text dominant-baseline="middle" stroke="none" vector-effect="non-scaling-stroke" x="-10" y="-3.345270e+01">1.0</text><text stroke="none" vector-effect="non-scaling-stroke" x="-10" y="-7.929272e+01" dominant-baseline="middle">2.0</text><text vector-effect="non-scaling-stroke" x="-10" y="-1.251327e+02" dominant-baseline="middle" stroke="none">4.0</text><text vector-effect="non-scaling-stroke" x="-10" y="-1.709728e+02" dominant-baseline="middle" stroke="none">8.0</text><text dominant-baseline="middle" stroke="none" vector-effect="non-scaling-stroke" x="-10" y="-2.168128e+02">16.0</text><text dominant-baseline="middle" stroke="none" vector-effect="non-scaling-stroke" x="-10" y="-2.626528e+02">32.0</text><text dominant-baseline="middle" stroke="none" vector-effect="non-scaling-stroke" x="-10" y="-3.084928e+02">64.0</text><text x="-10" y="-3.543328e+02" dominant-baseline="middle" stroke="none" vector-effect="non-scaling-stroke">128.0</text><text vector-effect="non-scaling-stroke" x="-10" y="-4.001729e+02" dominant-baseline="middle" stroke="none">256.0</text><text x="-10" y="-4.460129e+02" dominant-baseline="middle" stroke="none" vector-effect="non-scaling-stroke">512.0</text></g><g dominant-baseline="hanging" font-size="12px" stroke="black" stroke-width="2px" text-anchor="middle" stroke-linecap="round" transform="translate(70 530 )scale(1 1 )rotate(-90 0 0 )" font-family="sans-serif" font-style="normal" font-weight="bold" fill="black" stroke-linejoin="round"><text stroke="none" vector-effect="non-scaling-stroke" x="230" y="6" dominant-baseline="hanging">Y</text></g><g stroke-linejoin="round" text-anchor="middle" fill="black" stroke-width="0.5px" font-style="normal" stroke-linecap="round" dominant-baseline="hanging" stroke="gray" font-size="12px" font-weight="bold" transform="translate(70 530 )scale(1 -1 )" font-family="sans-serif"><path vector-effect="non-scaling-stroke" d="M0,3.345270e+01 L660,3.345270e+01 M0,7.929272e+01 L660,7.929272e+01 M0,1.251327e+02 L660,1.251327e+02 M0,1.709728e+02 L660,1.709728e+02 M0,2.168128e+02 L660,2.168128e+02 M0,2.626528e+02 L660,2.626528e+02 M0,3.084928e+02 L660,3.084928e+02 M0,3.543328e+02 L660,3.543328e+02 M0,4.001729e+02 L660,4.001729e+02 M0,4.460129e+02 L660,4.460129e+02 "/></g><g font-style="normal" stroke="black" stroke-linejoin="round" text-anchor="middle" dominant-baseline="hanging" stroke-linecap="round" font-family="sans-serif" font-size="12px" font-weight="bold" fill="none" stroke-width="2px"><rect width="660" height="460" vector-effect="non-scaling-stroke" x="70" y="70"/><g dominant-baseline="middle" fill="black" font-size="18px"><text stroke="none" vector-effect="non-scaling-stroke" x="400" y="35" dominant-baseline="middle">A diagram of sorts 📊 📈</text></g></g></svg>