<?xml version="1.0"?>
<svg xmlns="http://www.w3.org/2000/svg" width="800" height="600" viewbox="0 0 800 600" preserveAspectRatio="xMidYMid meet">
  <defs>
    <marker markerWidth="2%" markerHeight="2%" id="circle" viewBox="0 0 10 10 " refX="5" refY="5" markerUnits="userSpaceOnUse">
      <circle cx="5" cy="5" r="3" fill="none" stroke="black"/>
    </marker>
    <marker refX="5" refY="5" markerUnits="userSpaceOnUse" markerWidth="2%" markerHeight="2%" id="filled-circle" viewBox="0 0 10 10 ">
      <circle cx="5" cy="5" r="3" fill="black" stroke="none"/>
    </marker>
    <marker markerWidth="2%" markerHeight="2%" id="square" viewBox="0 0 10 10 " refX="5" refY="5" markerUnits="userSpaceOnUse">
      <rect y="2" width="6" height="6" fill="none" stroke="black" x="2"/>
    </marker>
    <marker id="filled-square" viewBox="0 0 10 10 " refX="5" refY="5" markerUnits="userSpaceOnUse" markerWidth="2%" markerHeight="2%">
      <rect height="6" fill="black" stroke="none" x="2" y="2" width="6"/>
    </marker>
  </defs>
  <g stroke-width="3px" stroke-linecap="round" stroke-linejoin="round" transform="translate(64 536 )scale(1 -1 )" fill="none" stroke="hsl(198, 47%, 65%)">
    <path d="M6.720000e+01,1.482080e+01 L6.048000e+02,4.427360e+02 " vector-effect="non-scaling-stroke"/>
  </g>
  <g stroke-linecap="round" stroke-linejoin="round" fill="none" stroke="black" stroke-width="2px">
    <rect vector-effect="non-scaling-stroke" x="64" y="64" width="672" height="472"/>
  </g>
  <g stroke-linecap="round" stroke-linejoin="round" transform="translate(64 536 )scale(1 -1 )" fill="none" stroke="black" stroke-width="2px">
    <path d="M6.720000e+01,0 L6.720000e+01,-6 M1.344000e+02,0 L1.344000e+02,-6 M2.016000e+02,0 L2.016000e+02,-6 M2.688000e+02,0 L2.688000e+02,-6 M336,0 L336,-6 M4.032000e+02,0 L4.032000e+02,-6 M4.704000e+02,0 L4.704000e+02,-6 M5.376000e+02,0 L5.376000e+02,-6 M6.048000e+02,0 L6.048000e+02,-6 M672,0 L672,-6 " vector-effect="non-scaling-stroke"/>
  </g>
  <g dominant-baseline="hanging" stroke="black" stroke-width="2px" text-anchor="middle" fill="black" transform="translate(64 536 )scale(1 1 )" font-size="12px" stroke-linejoin="round" font-family="sans-serif" font-style="normal" font-weight="lighter" stroke-linecap="round">
    <text dominant-baseline="hanging" stroke="none" vector-effect="non-scaling-stroke" x="6.720000e+01" y="10">10.00</text>
    <text vector-effect="non-scaling-stroke" x="1.344000e+02" y="10" dominant-baseline="hanging" stroke="none">20.00</text>
    <text dominant-baseline="hanging" stroke="none" vector-effect="non-scaling-stroke" x="2.016000e+02" y="10">30.00</text>
    <text x="2.688000e+02" y="10" dominant-baseline="hanging" stroke="none" vector-effect="non-scaling-stroke">40.00</text>
    <text dominant-baseline="hanging" stroke="none" vector-effect="non-scaling-stroke" x="336" y="10">50.00</text>
    <text x="4.032000e+02" y="10" dominant-baseline="hanging" stroke="none" vector-effect="non-scaling-stroke">60.00</text>
    <text y="10" dominant-baseline="hanging" stroke="none" vector-effect="non-scaling-stroke" x="4.704000e+02">70.00</text>
    <text vector-effect="non-scaling-stroke" x="5.376000e+02" y="10" dominant-baseline="hanging" stroke="none">80.00</text>
    <text x="6.048000e+02" y="10" dominant-baseline="hanging" stroke="none" vector-effect="non-scaling-stroke">90.00</text>
    <text y="10" dominant-baseline="hanging" stroke="none" vector-effect="non-scaling-stroke" x="672">100.00</text>
  </g>
  <g font-family="sans-serif" font-size="12px" font-style="normal" text-anchor="middle" stroke-linecap="round" stroke-linejoin="round" transform="translate(64 536 )scale(1 1 )rotate(0 0 0 )" dominant-baseline="baseline" stroke="black" stroke-width="2px" font-weight="bold" fill="black">
    <text y="-6" dominant-baseline="baseline" stroke="none" vector-effect="non-scaling-stroke" x="336">Values</text>
  </g>
</svg>
