<svg preserveAspectRatio="xMidYMid meet" xmlns="http://www.w3.org/2000/svg" width="800" height="600" viewbox="0 0 800 600"><defs><marker markerWidth="2%" markerHeight="2%" id="circle" viewBox="0 0 10 10 " refX="5" refY="5" markerUnits="userSpaceOnUse"><circle r="3" fill="none" stroke="black" cx="5" cy="5"/></marker><marker markerHeight="2%" id="filled-circle" viewBox="0 0 10 10 " refX="5" refY="5" markerUnits="userSpaceOnUse" markerWidth="2%"><circle stroke="none" cx="5" cy="5" r="3" fill="black"/></marker><marker refY="5" markerUnits="userSpaceOnUse" markerWidth="2%" markerHeight="2%" id="square" viewBox="0 0 10 10 " refX="5"><rect y="2" width="6" height="6" fill="none" stroke="black" x="2"/></marker><marker id="filled-square" viewBox="0 0 10 10 " refX="5" refY="5" markerUnits="userSpaceOnUse" markerWidth="2%" markerHeight="2%"><rect y="2" width="6" height="6" fill="black" stroke="none" x="2"/></marker></defs><g stroke-linecap="round" stroke-linejoin="round" transform="translate(64 536 )scale(1 -1 )" fill="none" stroke="hsl(198, 47%, 65%)" stroke-width="3px"><path vector-effect="non-scaling-stroke" d="M6.720000e+01,1.482080e+01 L6.048000e+02,4.427360e+02 "/></g><g stroke="black" stroke-width="2px" stroke-linecap="round" stroke-linejoin="round" fill="none"><rect y="64" width="672" height="472" vector-effect="non-scaling-stroke" x="64"/></g><g fill="none" stroke="black" stroke-width="2px" stroke-linecap="round" stroke-linejoin="round" transform="translate(64 536 )scale(1 -1 )"><path vector-effect="non-scaling-stroke" d="M6.720000e+01,0 L6.720000e+01,-6 M1.344000e+02,0 L1.344000e+02,-6 M2.016000e+02,0 L2.016000e+02,-6 M2.688000e+02,0 L2.688000e+02,-6 M336,0 L336,-6 M4.032000e+02,0 L4.032000e+02,-6 M4.704000e+02,0 L4.704000e+02,-6 M5.376000e+02,0 L5.376000e+02,-6 M6.048000e+02,0 L6.048000e+02,-6 M672,0 L672,-6 "/></g><g stroke="black" stroke-linecap="round" text-anchor="middle" dominant-baseline="hanging" fill="black" stroke-linejoin="round" font-weight="normal" font-size="12px" font-style="normal" stroke-width="2px" transform="translate(64 536 )scale(1 1 )" font-family="sans-serif"><text vector-effect="non-scaling-stroke" x="6.720000e+01" y="10" dominant-baseline="hanging" stroke="none">10.00</text><text vector-effect="non-scaling-stroke" x="1.344000e+02" y="10" dominant-baseline="hanging" stroke="none">20.00</text><text dominant-baseline="hanging" stroke="none" vector-effect="non-scaling-stroke" x="2.016000e+02" y="10">30.00</text><text dominant-baseline="hanging" stroke="none" vector-effect="non-scaling-stroke" x="2.688000e+02" y="10">40.00</text><text y="10" dominant-baseline="hanging" stroke="none" vector-effect="non-scaling-stroke" x="336">50.00</text><text dominant-baseline="hanging" stroke="none" vector-effect="non-scaling-stroke" x="4.032000e+02" y="10">60.00</text><text y="10" dominant-baseline="hanging" stroke="none" vector-effect="non-scaling-stroke" x="4.704000e+02">70.00</text><text stroke="none" vector-effect="non-scaling-stroke" x="5.376000e+02" y="10" dominant-baseline="hanging">80.00</text><text dominant-baseline="hanging" stroke="none" vector-effect="non-scaling-stroke" x="6.048000e+02" y="10">90.00</text><text vector-effect="non-scaling-stroke" x="672" y="10" dominant-baseline="hanging" stroke="none">100.00</text></g><g stroke="black" stroke-width="2px" font-size="12px" font-style="normal" fill="black" font-weight="bold" stroke-linecap="round" transform="translate(64 536 )scale(1 1 )rotate(0 0 0 )" font-family="sans-serif" stroke-linejoin="round" text-anchor="middle" dominant-baseline="baseline"><text x="336" y="-6" dominant-baseline="baseline" stroke="none" vector-effect="non-scaling-stroke">Values</text></g></svg>