<svg xmlns="http://www.w3.org/2000/svg" width="800" height="600" viewbox="0 0 800 600" style="background-color:white" preserveAspectRatio="xMidYMid meet"><defs><marker refY="5" markerUnits="userSpaceOnUse" markerWidth="2%" markerHeight="2%" id="circle" viewBox="0 0 10 10 " refX="5"><circle cx="5" cy="5" r="3" fill="none" stroke="black"/></marker><marker id="filled-circle" viewBox="0 0 10 10 " refX="5" refY="5" markerUnits="userSpaceOnUse" markerWidth="2%" markerHeight="2%"><circle cx="5" cy="5" r="3" fill="black" stroke="none"/></marker><marker viewBox="0 0 10 10 " refX="5" refY="5" markerUnits="userSpaceOnUse" markerWidth="2%" markerHeight="2%" id="square"><rect height="6" fill="none" stroke="black" x="2" y="2" width="6"/></marker><marker markerWidth="2%" markerHeight="2%" id="filled-square" viewBox="0 0 10 10 " refX="5" refY="5" markerUnits="userSpaceOnUse"><rect fill="black" stroke="none" x="2" y="2" width="6" height="6"/></marker></defs><g stroke-linejoin="round" transform="translate(64 536 )scale(1 -1 )" fill="none" stroke="hsl(198, 47%, 65%)" stroke-width="3px" stroke-linecap="round"><path vector-effect="non-scaling-stroke" d="M6.720000e+01,1.482080e+01 L6.048000e+02,4.427360e+02 "/></g><g stroke-width="2px" stroke-linecap="round" stroke-linejoin="round" fill="none" stroke="black"><rect x="64" y="64" width="672" height="472" vector-effect="non-scaling-stroke"/></g><g stroke-linejoin="round" transform="translate(64 536 )scale(1 -1 )" fill="none" stroke="black" stroke-width="2px" stroke-linecap="round"><path vector-effect="non-scaling-stroke" d="M0,0 L0,-6 M6.720000e+01,0 L6.720000e+01,-6 M1.344000e+02,0 L1.344000e+02,-6 M2.016000e+02,0 L2.016000e+02,-6 M2.688000e+02,0 L2.688000e+02,-6 M336,0 L336,-6 M4.032000e+02,0 L4.032000e+02,-6 M4.704000e+02,0 L4.704000e+02,-6 M5.376000e+02,0 L5.376000e+02,-6 M6.048000e+02,0 L6.048000e+02,-6 M672,0 L672,-6 "/></g><g font-family="sans-serif" font-size="12px" stroke-width="2px" font-style="normal" stroke-linecap="round" transform="translate(64 536 )scale(1 1 )" dominant-baseline="hanging" stroke="black" stroke-linejoin="round" font-weight="normal" text-anchor="middle" fill="black"><text dominant-baseline="hanging" stroke="none" vector-effect="non-scaling-stroke" x="0" y="10">0.00</text><text stroke="none" vector-effect="non-scaling-stroke" x="6.720000e+01" y="10" dominant-baseline="hanging">10.00</text><text stroke="none" vector-effect="non-scaling-stroke" x="1.344000e+02" y="10" dominant-baseline="hanging">20.00</text><text x="2.016000e+02" y="10" dominant-baseline="hanging" stroke="none" vector-effect="non-scaling-stroke">30.00</text><text x="2.688000e+02" y="10" dominant-baseline="hanging" stroke="none" vector-effect="non-scaling-stroke">40.00</text><text x="336" y="10" dominant-baseline="hanging" stroke="none" vector-effect="non-scaling-stroke">50.00</text><text vector-effect="non-scaling-stroke" x="4.032000e+02" y="10" dominant-baseline="hanging" stroke="none">60.00</text><text dominant-baseline="hanging" stroke="none" vector-effect="non-scaling-stroke" x="4.704000e+02" y="10">70.00</text><text x="5.376000e+02" y="10" dominant-baseline="hanging" stroke="none" vector-effect="non-scaling-stroke">80.00</text><text stroke="none" vector-effect="non-scaling-stroke" x="6.048000e+02" y="10" dominant-baseline="hanging">90.00</text><text dominant-baseline="hanging" stroke="none" vector-effect="non-scaling-stroke" x="672" y="10">100.00</text></g><g font-style="normal" stroke="black" stroke-linejoin="round" font-family="sans-serif" font-weight="bold" text-anchor="middle" transform="translate(64 536 )scale(1 1 )rotate(0 0 0 )" font-size="12px" dominant-baseline="baseline" stroke-width="2px" fill="black" stroke-linecap="round"><text stroke="none" vector-effect="non-scaling-stroke" x="336" y="-6" dominant-baseline="baseline">Values</text></g></svg>